<svg xmlns="http://www.w3.org/2000/svg" width="38.39" height="38.39" viewBox="0 0 38.39 38.39">
  <g id="brain" transform="translate(-0.003)">
    <g id="Group_36713" data-name="Group 36713" transform="translate(0.003)">
      <g id="Group_36712" data-name="Group 36712" transform="translate(0)">
        <path id="Path_38399" data-name="Path 38399" d="M424.917,428.017a1.5,1.5,0,1,0-2.845.948,15.245,15.245,0,0,0,1.856,3.778,1.5,1.5,0,1,0,2.431-1.756A12.444,12.444,0,0,1,424.917,428.017Z" transform="translate(-390.353 -394.975)" fill="#d4af38"/>
        <path id="Path_38400" data-name="Path 38400" d="M38.393,16.721a5.36,5.36,0,0,0-1.751-3.99,5.407,5.407,0,0,0-4.327-6.891,5.43,5.43,0,0,0-5.339-4.414,5.3,5.3,0,0,0-3.1,1,5.831,5.831,0,0,0-9.427-.046,5.3,5.3,0,0,0-3.032-.951A5.43,5.43,0,0,0,6.081,5.839a5.407,5.407,0,0,0-4.554,5.332,6.514,6.514,0,0,0,.4,2.091A5.967,5.967,0,0,0,0,17.47a5.4,5.4,0,0,0,5.4,5.4,16.621,16.621,0,0,0,2.5-.209,12.3,12.3,0,0,1,2.41-.167,5.408,5.408,0,0,0,5.063,3.525c1.2,0,2.519-.028,3.892-.143a1.507,1.507,0,0,0,.148.15,29.662,29.662,0,0,1,8.769,11.492,1.5,1.5,0,1,0,2.724-1.255,36.261,36.261,0,0,0-4.136-7.01,21.273,21.273,0,0,0,4.986.665,5.292,5.292,0,0,0,5.286-5.286A5.238,5.238,0,0,0,35.85,21.3,5.4,5.4,0,0,0,38.393,16.721Zm-5.4,2.4a1.5,1.5,0,0,0-.261.023l-1.275.225a1.5,1.5,0,0,0,.261,2.976,2.287,2.287,0,1,1,.037,4.574,21.022,21.022,0,0,1-7.911-1.809,17.349,17.349,0,0,0,2.482-.868A1.5,1.5,0,0,0,25.115,21.5c-3.052,1.349-6.809,1.522-9.741,1.522a2.4,2.4,0,1,1,0-4.8,9.7,9.7,0,0,0,4.864-1.007,4,4,0,0,0,2.109-3.567,4.5,4.5,0,0,0-4.5-4.5,1.5,1.5,0,1,0,0,3,1.5,1.5,0,0,1,1.5,1.5c0,1.37-2.49,1.575-3.974,1.575A5.407,5.407,0,0,0,10.1,19.489a15.7,15.7,0,0,0-2.615.2,13.728,13.728,0,0,1-2.079.18A2.4,2.4,0,0,1,3,17.47a3.551,3.551,0,0,1,1.581-2.545,1.5,1.5,0,0,0,.6-1.287l-.012-.225a1.5,1.5,0,0,0-.217-.7,3.622,3.622,0,0,1-.432-1.545,2.4,2.4,0,0,1,1.828-2.33A5.438,5.438,0,0,0,11.42,12.3a1.5,1.5,0,0,0,0-3A2.418,2.418,0,0,1,8.988,6.9c0-.013,0-.025,0-.037s0-.025,0-.037a2.418,2.418,0,0,1,2.431-2.4,2.3,2.3,0,0,1,1.89.974c-.014.166-.023.334-.023.5a1.5,1.5,0,1,0,3,0,2.861,2.861,0,0,1,5.672-.579,1.5,1.5,0,0,0,1.45,1.2l.132,0a1.506,1.506,0,0,0,1.35-.808,2.327,2.327,0,0,1,2.087-1.292,2.4,2.4,0,1,1,.032,4.8,1.5,1.5,0,1,0,0,3,5.406,5.406,0,0,0,5.008-3.387,2.405,2.405,0,0,1,1.509,3.581,1.5,1.5,0,0,0-.219.78v.075a1.5,1.5,0,0,0,.819,1.336,2.317,2.317,0,0,1,1.268,2.113A2.4,2.4,0,0,1,32.994,19.12Z" transform="translate(-0.003)" fill="#d4af38"/>
      </g>
    </g>
  </g>
</svg>
