<svg xmlns="http://www.w3.org/2000/svg" width="15.188" height="18" viewBox="0 0 15.188 18">
  <g id="call" transform="translate(-39.996)">
    <path id="Path_49058" data-name="Path 49058" d="M52.09,0h-9A3.1,3.1,0,0,0,40,3.094v9a3.1,3.1,0,0,0,3.094,3.094h2.494l1.524,2.539a.563.563,0,0,0,.965,0L49.6,15.188H52.09a3.1,3.1,0,0,0,3.094-3.094v-9A3.1,3.1,0,0,0,52.09,0Zm.243,10.678L51.14,11.872a1.84,1.84,0,0,1-1.348.5c-3.5,0-8.79-6.275-6.607-8.458l1.193-1.193a.562.562,0,0,1,.8,0l2.187,2.187a.563.563,0,0,1,0,.8L46.309,6.759A5.082,5.082,0,0,0,48.3,8.748L49.35,7.7a.562.562,0,0,1,.8,0l2.187,2.187A.563.563,0,0,1,52.333,10.678Z" transform="translate(0 0)" fill="#125e51"/>
    <path id="Path_49059" data-name="Path 49059" d="M153.569,117.177c-.667.667-1.919-.328-2.585-.995s-1.662-1.919-.994-2.585l.8-.8-1.392-1.392-.8.8c-.247.247-.228.85.051,1.574a9.493,9.493,0,0,0,4.739,4.739c.724.278,1.327.3,1.574.051l.8-.8-1.392-1.392Z" transform="translate(-104.617 -107.493)" fill="#125e51"/>
  </g>
</svg>
