<svg id="comment" xmlns="http://www.w3.org/2000/svg" width="39.95" height="39.95" viewBox="0 0 39.95 39.95">
  <path id="Path_38394" data-name="Path 38394" d="M35.659,6.242h-1.17V3.511a3.511,3.511,0,1,0-7.023,0V4.47A2.742,2.742,0,0,1,25.485,7.1l-1.14.326V7.413a1.17,1.17,0,0,0-1.17-1.17H18.493a1.17,1.17,0,0,0-1.17,1.17v5.228H3.511A3.515,3.515,0,0,0,0,16.152V38.78a1.17,1.17,0,0,0,1.82.974l4.387-2.924H28.48a3.515,3.515,0,0,0,3.511-3.511V21.068h3.667a4.3,4.3,0,0,0,4.292-4.292V10.534A4.3,4.3,0,0,0,35.659,6.242Zm-16,2.341H22V18.727H19.663Zm9.988,24.735a1.172,1.172,0,0,1-1.17,1.17H5.852a1.17,1.17,0,0,0-.649.2L2.341,36.593V16.152a1.172,1.172,0,0,1,1.17-1.17H17.322V19.9a1.17,1.17,0,0,0,1.17,1.17h4.682a1.17,1.17,0,0,0,1.162-1.037,6.592,6.592,0,0,0,3.544,1.037h1.77Zm7.959-16.542a1.953,1.953,0,0,1-1.951,1.951H27.88a4.26,4.26,0,0,1-3.536-1.892V9.856l1.783-.51A5.093,5.093,0,0,0,29.807,4.47V3.511a1.17,1.17,0,1,1,2.341,0v3.9a1.17,1.17,0,0,0,1.17,1.17h2.341a1.953,1.953,0,0,1,1.951,1.951Z" fill="#5731ad"/>
  <path id="Path_38395" data-name="Path 38395" d="M61.17,254.341h7.8a1.17,1.17,0,1,0,0-2.341h-7.8a1.17,1.17,0,1,0,0,2.341Z" transform="translate(-55.318 -232.337)" fill="#5731ad"/>
  <path id="Path_38396" data-name="Path 38396" d="M81.458,312H61.17a1.17,1.17,0,1,0,0,2.341H81.458a1.17,1.17,0,1,0,0-2.341Z" transform="translate(-55.318 -287.655)" fill="#5731ad"/>
  <path id="Path_38397" data-name="Path 38397" d="M81.458,372H61.17a1.17,1.17,0,1,0,0,2.341H81.458a1.17,1.17,0,1,0,0-2.341Z" transform="translate(-55.318 -342.974)" fill="#5731ad"/>
</svg>
