<svg xmlns="http://www.w3.org/2000/svg" width="38.371" height="38.371" viewBox="0 0 38.371 38.371">
  <path id="content-marketing" d="M23.232,38.371H8.993A9,9,0,0,1,0,29.377V8.993A9,9,0,0,1,8.993,0H29.377a9,9,0,0,1,8.993,8.993V23.345a1.5,1.5,0,1,1-3,0V8.993a6,6,0,0,0-6-6H8.993a6,6,0,0,0-6,6V29.377a6,6,0,0,0,6,6H23.232a1.5,1.5,0,1,1,0,3ZM30.876,9.443a1.5,1.5,0,0,0-1.5-1.5H15.663a1.5,1.5,0,1,0,0,3H29.377A1.5,1.5,0,0,0,30.876,9.443Zm0,6a1.5,1.5,0,0,0-1.5-1.5H8.993a1.5,1.5,0,1,0,0,3H29.377A1.5,1.5,0,0,0,30.876,15.438Zm-14.989,6a1.5,1.5,0,0,0-1.5-1.5h-5.4a1.5,1.5,0,1,0,0,3h5.4A1.5,1.5,0,0,0,15.888,21.434ZM7.494,9.293A1.874,1.874,0,1,0,9.368,7.419,1.874,1.874,0,0,0,7.494,9.293ZM36.768,36.768a5.477,5.477,0,0,0,0-7.737l-5.254-5.254a10.805,10.805,0,0,0-5.54-2.965l-4.247-.849a1.5,1.5,0,0,0-1.764,1.764l.849,4.247a10.806,10.806,0,0,0,2.965,5.54l5.254,5.254a5.471,5.471,0,0,0,7.737,0ZM25.386,23.752A7.816,7.816,0,0,1,29.394,25.9l5.254,5.254a2.473,2.473,0,1,1-3.5,3.5L25.9,29.394a7.817,7.817,0,0,1-2.145-4.008l-.408-2.042Z" fill="#d4af38"/>
</svg>
