<svg xmlns="http://www.w3.org/2000/svg" width="15.577" height="13.622" viewBox="0 0 15.577 13.622">
  <g id="mortarboard_1_" data-name="mortarboard (1)" transform="translate(0 -32.135)">
    <path id="Path_49065" data-name="Path 49065" d="M419.624,185.457v-4.845l-.913.3v4.541a1.436,1.436,0,0,0-.978,1.359v2.444a.456.456,0,0,0,.456.456h1.955a.456.456,0,0,0,.456-.456v-2.444A1.436,1.436,0,0,0,419.624,185.457Z" transform="translate(-405.025 -143.959)" fill="#1fa276"/>
    <path id="Path_49066" data-name="Path 49066" d="M100.823,203.508,96.4,202.034v3.108a.456.456,0,0,0,.134.323,6.678,6.678,0,0,0,9.444,0,.456.456,0,0,0,.134-.323v-3.108l-4.423,1.474A1.369,1.369,0,0,1,100.823,203.508Z" transform="translate(-93.467 -164.73)" fill="#1fa276"/>
    <path id="Path_49067" data-name="Path 49067" d="M7.789,37.936a.456.456,0,0,0,.144-.023l7.332-2.444a.456.456,0,0,0,0-.866L7.933,32.159a.457.457,0,0,0-.289,0L.312,34.6a.456.456,0,0,0,0,.866l7.332,2.444a.456.456,0,0,0,.144.023Z" transform="translate(0 0)" fill="#1fa276"/>
  </g>
</svg>
