<svg xmlns="http://www.w3.org/2000/svg" width="15.781" height="15.781" viewBox="0 0 15.781 15.781">
  <g id="email" transform="translate(-0.001)">
    <g id="Group_36979" data-name="Group 36979" transform="translate(0.001)">
      <path id="Path_49052" data-name="Path 49052" d="M7.891,0a7.89,7.89,0,1,0,7.89,7.89A7.89,7.89,0,0,0,7.891,0Zm0,2.771,4.669,2.912H3.222Zm4.727,7.561h0a.845.845,0,0,1-.845.845H4.01a.845.845,0,0,1-.845-.845V5.868a.841.841,0,0,1,.013-.145L7.639,8.506l.017.009.018.009a.468.468,0,0,0,.1.038l.01,0a.481.481,0,0,0,.11.014h0A.473.473,0,0,0,8,8.564l.01,0a.473.473,0,0,0,.1-.038l.018-.009.017-.009,4.461-2.782a.84.84,0,0,1,.013.145v4.464Z" transform="translate(-0.001)" fill="#84207e"/>
    </g>
  </g>
</svg>
