<svg xmlns="http://www.w3.org/2000/svg" width="35.747" height="35.749" viewBox="0 0 35.747 35.749">
  <g id="feather" transform="translate(-0.012 0)">
    <g id="Group_36711" data-name="Group 36711" transform="translate(0.012 0)">
      <path id="Path_38398" data-name="Path 38398" d="M34.316,1.6C32.24-.479,29.137-.1,26.984.366a77.3,77.3,0,0,0-10.23,3.464l-1.247.48-.049.02A55.485,55.485,0,0,0,9.705,7.185c-6.079,3.749-7.374,8.753-7.389,12.29a16.559,16.559,0,0,0,.895,5.341c-2.055,3.5-3.2,6.835-3.2,9.537a1.4,1.4,0,1,0,2.793,0,16.3,16.3,0,0,1,2.288-7.2A12.026,12.026,0,0,0,7.771,28.21a12.976,12.976,0,0,0,3.314.423,15.269,15.269,0,0,0,6.173-1.361,22.685,22.685,0,0,0,2.979-1.584,1.4,1.4,0,1,0-1.491-2.362,19.888,19.888,0,0,1-2.611,1.388,11.491,11.491,0,0,1-7.522.828,9.339,9.339,0,0,1-2.081-.788,41.986,41.986,0,0,1,3.384-4.436c3.908-4.5,11-10.944,22.754-16.344.41.645.521,1.66-.5,3.656a25.968,25.968,0,0,1-2.154,3.361c-.028.011-.056.021-.083.034a18.449,18.449,0,0,1-5.854.985A1.4,1.4,0,0,0,24.1,14.8h.024a28.394,28.394,0,0,0,3.133-.248l-.675.845c-.6.746-1.211,1.516-1.832,2.3a25.471,25.471,0,0,1-6.407.59H18.3a1.4,1.4,0,0,0-.036,2.792q.459.012.907.012a27.555,27.555,0,0,0,6.7-.789l.04-.012c.027-.007.053-.015.08-.024l.055-.021.072-.03.057-.028.064-.034.056-.035.058-.039.055-.043L26.464,20c.019-.016.037-.034.054-.051l.044-.044c.018-.02.035-.04.053-.061s.019-.021.029-.033c.715-.914,1.429-1.806,2.118-2.669A55.271,55.271,0,0,0,34.653,8.9a8.679,8.679,0,0,0,1.105-3.767A4.729,4.729,0,0,0,34.316,1.6ZM7.807,18.487C6.9,19.536,6.054,20.6,5.287,21.654a12.865,12.865,0,0,1-.178-2.167,11.1,11.1,0,0,1,5.215-9.368l-.019.046A1.4,1.4,0,1,0,12.9,11.2a22.156,22.156,0,0,1,1.7-3.422c.991-.464,1.789-.81,1.935-.873l1.224-.471c4.23-1.628,7.926-3.05,10.633-3.5A67.48,67.48,0,0,0,7.807,18.487Z" transform="translate(-0.012 0)" fill="#125e51"/>
    </g>
  </g>
</svg>
