<svg xmlns="http://www.w3.org/2000/svg" width="16.651" height="15.264" viewBox="0 0 16.651 15.264">
  <g id="feedback" transform="translate(0 -21.33)">
    <g id="Group_36985" data-name="Group 36985" transform="translate(0 21.33)">
      <g id="Group_36984" data-name="Group 36984" transform="translate(0 0)">
        <path id="Path_49060" data-name="Path 49060" d="M15.05,27.482a.346.346,0,0,0-.378.075L12.53,29.7a1.036,1.036,0,0,1-.531.285l-1.735.347A1.04,1.04,0,0,1,9.04,29.1l.306-1.531H3.816a.347.347,0,0,1,0-.694H9.639c.012-.013.019-.03.032-.043l1.345-1.345h-7.2a.347.347,0,1,1,0-.694h7.632a.338.338,0,0,1,.195.067l2.251-2.251a2,2,0,0,1,.683-.444.347.347,0,0,0,.062-.612,1.385,1.385,0,0,0-.763-.229H1.388A1.389,1.389,0,0,0,0,22.718V36.247a.347.347,0,0,0,.214.32.343.343,0,0,0,.133.026.347.347,0,0,0,.245-.1L3.96,33.125h9.917a1.389,1.389,0,0,0,1.388-1.388V27.8A.347.347,0,0,0,15.05,27.482ZM7.979,29.656H3.816a.347.347,0,1,1,0-.694H7.979a.347.347,0,1,1,0,.694Z" transform="translate(0 -21.33)" fill="#125e51"/>
        <path id="Path_49061" data-name="Path 49061" d="M304.274,64a1.336,1.336,0,0,0-.939.389l-4.223,4.222a.345.345,0,0,0-.095.177l-.347,1.735a.347.347,0,0,0,.34.415.354.354,0,0,0,.068-.007l1.734-.347a.345.345,0,0,0,.177-.095l4.223-4.222h0A1.328,1.328,0,0,0,304.274,64Zm-.55,2.775-.9-.9.491-.491.9.9Z" transform="translate(-288.95 -62.612)" fill="#125e51"/>
      </g>
    </g>
  </g>
</svg>
