<svg xmlns="http://www.w3.org/2000/svg" width="20.745" height="17.304" viewBox="0 0 20.745 17.304">
  <g id="mortarboard" transform="translate(0 -42.468)">
    <path id="Path_49055" data-name="Path 49055" d="M20.34,45.948,10.575,42.5a.607.607,0,0,0-.4,0L.406,45.948a.608.608,0,0,0,0,1.146l9.765,3.471a.607.607,0,0,0,.407,0l9.765-3.471a.608.608,0,0,0,0-1.146Z" fill="#bf4646"/>
    <path id="Path_49056" data-name="Path 49056" d="M432.676,203.035v-5.3l-1.216.432v4.869a1.22,1.22,0,0,0,0,2.117v2.987a.608.608,0,1,0,1.216,0v-2.987a1.22,1.22,0,0,0,0-2.117Z" transform="translate(-413.391 -148.975)" fill="#bf4646"/>
    <path id="Path_49057" data-name="Path 49057" d="M111.544,224.469a1.819,1.819,0,0,1-.611-.105l-5.489-1.952v2.675c0,.654.683,1.208,2.029,1.645a14.328,14.328,0,0,0,8.143,0c1.346-.437,2.029-.99,2.029-1.645v-2.675l-5.489,1.952A1.819,1.819,0,0,1,111.544,224.469Z" transform="translate(-101.172 -172.653)" fill="#bf4646"/>
  </g>
</svg>
