<svg xmlns="http://www.w3.org/2000/svg" xmlns:xlink="http://www.w3.org/1999/xlink" width="183" height="185" viewBox="0 0 183 185">
  <defs>
    <filter id="Oval" x="0" y="0" width="183" height="185" filterUnits="userSpaceOnUse">
      <feOffset dy="6" input="SourceAlpha"/>
      <feGaussianBlur stdDeviation="10" result="blur"/>
      <feFlood flood-opacity="0.161"/>
      <feComposite operator="in" in2="blur"/>
      <feComposite in="SourceGraphic"/>
    </filter>
  </defs>
  <g id="Group_37002" data-name="Group 37002" transform="translate(-105 -382)">
    <g transform="matrix(1, 0, 0, 1, 105, 382)" filter="url(#Oval)">
      <ellipse id="Oval-2" data-name="Oval" cx="61.5" cy="62.5" rx="61.5" ry="62.5" transform="translate(30 24)" fill="#d4af38" opacity="0.124"/>
    </g>
    <g id="alert" transform="translate(148 430.157)">
      <path id="Path_49064" data-name="Path 49064" d="M21.071,19.653a4.07,4.07,0,0,1-2.878-6.948l8.633-8.633a4.07,4.07,0,0,1,5.755,5.755l-8.633,8.633a4.059,4.059,0,0,1-2.878,1.193Z" transform="translate(52.193 8.838)" fill="#ffc107"/>
      <path id="Path_49065" data-name="Path 49065" d="M29.908,19.14H24.82a4.07,4.07,0,1,1,0-8.14h5.088a4.07,4.07,0,1,1,0,8.14Z" transform="translate(63.707 33.773)" fill="#ffc107"/>
      <path id="Path_49066" data-name="Path 49066" d="M58.931,57.878H8.053A3.054,3.054,0,0,1,5,54.825V35.492a28.492,28.492,0,1,1,56.983,0V54.825A3.054,3.054,0,0,1,58.931,57.878Z" transform="translate(15.351 21.492)" fill="#f44336"/>
      <path id="Path_49067" data-name="Path 49067" d="M11.07,33.421A4.069,4.069,0,0,1,7,29.351,20.374,20.374,0,0,1,27.351,9a4.07,4.07,0,1,1,0,8.14A12.226,12.226,0,0,0,15.14,29.351,4.069,4.069,0,0,1,11.07,33.421Z" transform="translate(21.492 27.632)" fill="#fff"/>
      <g id="Group_37001" data-name="Group 37001">
        <path id="Path_49068" data-name="Path 49068" d="M15.07,20.351A4.069,4.069,0,0,1,11,16.281V4.07a4.07,4.07,0,1,1,8.14,0V16.281A4.069,4.069,0,0,1,15.07,20.351Z" transform="translate(33.773)" fill="#ffc107"/>
        <path id="Path_49069" data-name="Path 49069" d="M15.583,19.653a4.059,4.059,0,0,1-2.878-1.193L4.072,9.828A4.07,4.07,0,0,1,9.828,4.072l8.633,8.633a4.07,4.07,0,0,1-2.878,6.948Z" transform="translate(8.838 8.838)" fill="#ffc107"/>
        <path id="Path_49070" data-name="Path 49070" d="M8.14,19.14H4.07a4.07,4.07,0,1,1,0-8.14H8.14a4.07,4.07,0,1,1,0,8.14Z" transform="translate(0 33.773)" fill="#ffc107"/>
      </g>
      <path id="Path_49071" data-name="Path 49071" d="M90.563,42.421H7.123A7.131,7.131,0,0,1,0,35.3V25.123A7.131,7.131,0,0,1,7.123,18h83.44a7.131,7.131,0,0,1,7.123,7.123V35.3A7.131,7.131,0,0,1,90.563,42.421Z" transform="translate(0 55.264)" fill="#607d8b"/>
      <path id="Path_49072" data-name="Path 49072" d="M33.492,7A28.526,28.526,0,0,0,5,35.492V51.773H33.492V23.281A12.226,12.226,0,0,0,21.281,35.492a4.07,4.07,0,0,1-8.14,0A20.374,20.374,0,0,1,33.492,15.14Z" transform="translate(15.351 21.492)" fill="#d43a2f"/>
      <path id="Path_49073" data-name="Path 49073" d="M27.351,9A20.374,20.374,0,0,0,7,29.351a4.07,4.07,0,1,0,8.14,0A12.226,12.226,0,0,1,27.351,17.14Z" transform="translate(21.492 27.632)" fill="#dedede"/>
      <path id="Path_49074" data-name="Path 49074" d="M15.07,0A4.069,4.069,0,0,0,11,4.07V16.281a4.069,4.069,0,0,0,4.07,4.07Z" transform="translate(33.773)" fill="#dea806"/>
      <path id="Path_49075" data-name="Path 49075" d="M6.95,2.879A4.07,4.07,0,0,0,4.072,9.827l8.633,8.633A4.07,4.07,0,0,0,18.461,12.7L9.828,4.072A4.059,4.059,0,0,0,6.95,2.879Z" transform="translate(8.838 8.839)" fill="#dea806"/>
      <path id="Path_49076" data-name="Path 49076" d="M8.14,11H4.07a4.07,4.07,0,1,0,0,8.14H8.14a4.07,4.07,0,1,0,0-8.14Z" transform="translate(0 33.773)" fill="#dea806"/>
      <path id="Path_49077" data-name="Path 49077" d="M48.843,18H7.123A7.131,7.131,0,0,0,0,25.123V35.3a7.131,7.131,0,0,0,7.123,7.123h41.72Z" transform="translate(0 55.264)" fill="#546d79"/>
    </g>
  </g>
</svg>
