<svg xmlns="http://www.w3.org/2000/svg" width="119.23" height="134.827" viewBox="0 0 119.23 134.827">
  <g id="Group_22140" data-name="Group 22140" transform="translate(-155 -328.614)">
    <g id="Group_22139" data-name="Group 22139" transform="translate(9.137 12.556)">
      <g id="_1533913" data-name="1533913" transform="translate(145.863 329.782)">
        <path id="Path_48993" data-name="Path 48993" d="M114.252,109.674a52.9,52.9,0,1,1-52.9-52.9A52.9,52.9,0,0,1,114.252,109.674Zm0,0" transform="translate(-6.578 -43.348)" fill="#125e51" opacity="0.023"/>
        <path id="Path_48995" data-name="Path 48995" d="M252.8,69.286l-30.206,20a10.286,10.286,0,0,1-7.307,1.584,10.32,10.32,0,0,0-7.324,1.58l-4.042,2.679L181.285,61.762l5.554-23.994a25.034,25.034,0,0,0-3.517-19.474,5.987,5.987,0,0,1,9.159-7.605l3.6,3.485A38.466,38.466,0,0,1,205.361,28.4l1.951,5.253L227.4,20.381a6.851,6.851,0,0,1,9.6,2.091,6.942,6.942,0,0,1-2.152,9.411.075.075,0,0,0-.028.1.077.077,0,0,0,.1.038,6.787,6.787,0,0,1,2.448-.455,6.848,6.848,0,0,1,6.726,8.18,7,7,0,0,1-2.873,4.339.147.147,0,0,0-.038.2.005.005,0,0,0,.006,0,.144.144,0,0,0,.193.038,7.023,7.023,0,0,1,1.662-.2,7.221,7.221,0,0,1,3.864,1.12,6.731,6.731,0,0,1,2,1.961,6.849,6.849,0,0,1-1.931,9.494c-.078.053-.155.105-.233.155a.107.107,0,0,0-.035.134.065.065,0,0,0,.025.025.11.11,0,0,0,.136-.006,6.708,6.708,0,0,1,5.813.748,6.956,6.956,0,0,1,2.046,2.029A6.853,6.853,0,0,1,252.8,69.286Zm0,0" transform="translate(-138.524 -6.871)" fill="#fdd7bd"/>
        <path id="Path_48996" data-name="Path 48996" d="M73.871,256.983l-12.742,8.438-18.4,12.183a52.953,52.953,0,0,1-32.169-41.617l21.35-14.138,13-8.607a3.25,3.25,0,0,1,4.506.918l25.374,38.312A3.254,3.254,0,0,1,73.871,256.983Zm0,0" transform="translate(-8.182 -162.391)" fill="#125e51"/>
        <path id="Path_48997" data-name="Path 48997" d="M142.783,256.983l-12.742,8.438-29.216-43.573,13-8.607a3.25,3.25,0,0,1,4.506.918L143.7,252.474A3.254,3.254,0,0,1,142.783,256.983Zm0,0" transform="translate(-77.094 -162.391)" fill="#64f0dc" opacity="0.421"/>
        <g id="Group_22110" data-name="Group 22110" transform="translate(88.376 24.691)">
          <path id="Path_48998" data-name="Path 48998" d="M388.337,105.486l-10.051,5.378a3.256,3.256,0,0,1-4.153-.934l7.924-5.127a.076.076,0,0,0,.1.038,6.787,6.787,0,0,1,2.448-.455A6.9,6.9,0,0,1,388.337,105.486Zm0,0" transform="translate(-374.133 -104.387)" fill="#fac5aa"/>
          <path id="Path_48999" data-name="Path 48999" d="M413.594,158.647l-9.832,5.257a3.253,3.253,0,0,1-4.153-.931l7.924-5.127.342-.161a.144.144,0,0,0,.193.038,7.034,7.034,0,0,1,1.662-.2A7.209,7.209,0,0,1,413.594,158.647Zm0,0" transform="translate(-393.583 -144.958)" fill="#fac5aa"/>
          <path id="Path_49000" data-name="Path 49000" d="M441.785,211.607l-8.66,4.633a3.257,3.257,0,0,1-4.152-.934l6.864-4.441a.11.11,0,0,0,.136-.006A6.708,6.708,0,0,1,441.785,211.607Zm0,0" transform="translate(-416.001 -185.406)" fill="#fac5aa"/>
        </g>
        <path id="Path_49001" data-name="Path 49001" d="M118.276,51.881a8.674,8.674,0,0,0-5.372-3.7,8.724,8.724,0,0,0-5.818-12.576,8.745,8.745,0,0,0-.452-8.887,8.667,8.667,0,0,0-5.372-3.7A8.733,8.733,0,0,0,88.708,11.681l-8.694,5.758a54.331,54.331,0,0,0-14.68-4.968,40.366,40.366,0,0,0-5.6-6.777l-3.6-3.486a7.87,7.87,0,0,0-12.04,10q.141.215.278.431a54.781,54.781,0,1,0,62.44,72.3,1.883,1.883,0,1,0-3.542-1.279,51.081,51.081,0,0,1-64.1,31.089L54.491,104.6l0,0,0,0,12.733-8.432h0a5.136,5.136,0,0,0,1.447-7.117l-.168-.255,2.473-1.638a8.388,8.388,0,0,1,5.977-1.292,12.141,12.141,0,0,0,8.653-1.871L106.127,70.4a51.119,51.119,0,0,1-.694,5.289,1.882,1.882,0,0,0,1.508,2.2,1.837,1.837,0,0,0,.346.032,1.884,1.884,0,0,0,1.849-1.54,55.071,55.071,0,0,0,.9-8.564l5.781-3.829a8.735,8.735,0,0,0,2.46-12.1ZM76.358,19.86,70.6,23.67l-1.133-3.052a40.3,40.3,0,0,0-1.616-3.743A50.547,50.547,0,0,1,76.358,19.86ZM16.729,32.914A51.017,51.017,0,0,1,46.175,16.125a23.263,23.263,0,0,1,1.173,14.089L42.758,50.049a5.126,5.126,0,0,0-6.572-.766l-13,8.611h0L4.422,70.317c-.1-1.323-.156-2.656-.156-3.989A51,51,0,0,1,16.729,32.914ZM65.736,92.151a1.364,1.364,0,0,1-.588.87h0l-11.183,7.405L33.21,69.472a1.883,1.883,0,0,0-3.128,2.1l20.744,30.938L34.861,113.08A51.17,51.17,0,0,1,4.915,74.435L23.693,62.041l2.161,3.225a1.883,1.883,0,1,0,3.128-2.1l-2.146-3.2,11.429-7.544a1.37,1.37,0,0,1,1.9.387L65.537,91.124A1.358,1.358,0,0,1,65.736,92.151Zm50.126-34.459a4.934,4.934,0,0,1-2.126,3.153l-6.609,4.377-.006,0L83.532,80.849a8.383,8.383,0,0,1-5.977,1.292A12.148,12.148,0,0,0,68.9,84.011l-2.473,1.638L45.647,54.269l5.372-23.2A27.055,27.055,0,0,0,49.038,13.3a1.844,1.844,0,0,0-.079-.167,26.636,26.636,0,0,0-1.723-3.013,4.1,4.1,0,0,1,6.279-5.213l3.6,3.487a36.792,36.792,0,0,1,8.829,13.531L67.9,27.206l.011.028.015.037c.014.032.027.062.041.087a1.857,1.857,0,0,0,.129.233,1.882,1.882,0,0,0,2.609.53l20.084-13.3a4.968,4.968,0,0,1,5.486,8.284L94.531,24.26h0L90.64,26.837a.141.141,0,0,1-.015.01c-.022.016-.043.03-.061.045a1.882,1.882,0,0,0,2.156,3.084L96.612,27.4a4.968,4.968,0,0,1,5.484,8.287l-5.634,3.732a1.883,1.883,0,1,0,2.079,3.14l.872-.577,3.018-2a4.968,4.968,0,0,1,5.486,8.285L105.1,50.13l-.044.03L102.282,52a1.883,1.883,0,1,0,2.079,3.141l.872-.577h0l3.018-2a4.967,4.967,0,0,1,7.611,5.131Zm0,0" transform="translate(-0.5 0)" fill="#424242"/>
      </g>
      <g id="Group_22138" data-name="Group 22138" transform="matrix(0.966, -0.259, 0.259, 0.966, 163.13, 321.067)">
        <g id="Group_22137" data-name="Group 22137" transform="translate(1.753 1.749)">
          <path id="Path_49018" data-name="Path 49018" d="M15.847,9.866A13.6,13.6,0,0,1,7.923,0,13.6,13.6,0,0,1,0,9.866a13.6,13.6,0,0,1,7.923,9.866A13.6,13.6,0,0,1,15.847,9.866Z" fill="#d4af38"/>
        </g>
        <path id="Path_49027" data-name="Path 49027" d="M1.041,13.217a11.772,11.772,0,0,1,6.9,8.5,1.749,1.749,0,0,0,1.729,1.514h.009a1.757,1.757,0,0,0,1.735-1.505,11.77,11.77,0,0,1,6.9-8.508,1.753,1.753,0,0,0,0-3.2,11.77,11.77,0,0,1-6.9-8.5A1.749,1.749,0,0,0,9.685,0H9.676A1.758,1.758,0,0,0,7.94,1.505a11.769,11.769,0,0,1-6.9,8.508,1.753,1.753,0,0,0,0,3.2ZM9.676,6.739a15.122,15.122,0,0,0,4.392,4.876,15.12,15.12,0,0,0-4.392,4.876,15.126,15.126,0,0,0-4.392-4.876A15.122,15.122,0,0,0,9.676,6.739Z" transform="translate(0 0)" fill="#424242"/>
      </g>
    </g>
  </g>
</svg>
