<svg xmlns="http://www.w3.org/2000/svg" width="22.146" height="24.255" viewBox="0 0 22.146 24.255">
  <g id="Group_20556" data-name="Group 20556" transform="translate(1 1)">
    <path id="Path_37456" data-name="Path 37456" d="M212.7,1083l-9.3,0c-3.336.021-5.4,2.217-5.4,5.565v11.117c0,3.366,2.082,5.569,5.447,5.569l9.3,0c3.337-.021,5.4-2.218,5.4-5.566v-11.117C218.146,1085.2,216.063,1083,212.7,1083Z" transform="translate(-198 -1083)" fill="none" stroke="#222b45" stroke-linecap="round" stroke-linejoin="round" stroke-width="2"/>
    <path id="Name" d="M10.268-3.7a.907.907,0,0,1,.669.265.907.907,0,0,1,.265.669.907.907,0,0,1-.265.669.907.907,0,0,1-.669.265H6.955V1.457a.943.943,0,0,1-.265.679.948.948,0,0,1-1.338,0,.943.943,0,0,1-.265-.679V-1.835H1.774A.907.907,0,0,1,1.105-2.1.907.907,0,0,1,.84-2.769a.907.907,0,0,1,.265-.669A.907.907,0,0,1,1.774-3.7H5.087V-7.016a.907.907,0,0,1,.265-.669.907.907,0,0,1,.669-.265.907.907,0,0,1,.669.265.907.907,0,0,1,.265.669V-3.7Z" transform="translate(4.052 13.897)" fill="#222b45"/>
  </g>
</svg>
