<svg xmlns="http://www.w3.org/2000/svg" width="23.603" height="24.845" viewBox="0 0 23.603 24.845">
  <g id="Iconly_Bold_Home" data-name="Iconly/Bold/Home" transform="translate(0 0)">
    <g id="Home" transform="translate(0 0)">
      <path id="Home-2" data-name="Home" d="M8.242,23.321v-3.8a1.762,1.762,0,0,1,1.769-1.756h3.57a1.775,1.775,0,0,1,1.251.514,1.749,1.749,0,0,1,.518,1.241v3.8a1.507,1.507,0,0,0,.442,1.077,1.529,1.529,0,0,0,1.081.447h2.436A4.3,4.3,0,0,0,22.344,23.6a4.236,4.236,0,0,0,1.258-3.01V9.773A3.072,3.072,0,0,0,22.49,7.41L14.2.84A3.848,3.848,0,0,0,9.3.928L1.2,7.41A3.073,3.073,0,0,0,0,9.773v10.81a4.278,4.278,0,0,0,4.293,4.262h2.38a1.53,1.53,0,0,0,1.535-1.513Z" transform="translate(0 0)" fill="#125e51"/>
    </g>
  </g>
</svg>
