<svg id="telegram" xmlns="http://www.w3.org/2000/svg" width="23.606" height="23.606" viewBox="0 0 23.606 23.606">
  <path id="Path_38364" data-name="Path 38364" d="M11.8,0a11.8,11.8,0,1,0,11.8,11.8A11.816,11.816,0,0,0,11.8,0Zm0,21.639A9.836,9.836,0,1,1,21.638,11.8,9.847,9.847,0,0,1,11.8,21.639Zm0,0" transform="translate(0 0)" fill="#222b45"/>
  <g id="user" transform="translate(-17.836 5.483)">
    <g id="Group_36725" data-name="Group 36725" transform="translate(26.464)">
      <g id="Group_36724" data-name="Group 36724">
        <path id="Path_38409" data-name="Path 38409" d="M113.966,0a3.175,3.175,0,1,0,3.175,3.175A3.184,3.184,0,0,0,113.966,0Z" transform="translate(-110.791)" fill="#222b45"/>
      </g>
    </g>
    <g id="Group_36727" data-name="Group 36727" transform="translate(24.165 6.578)">
      <g id="Group_36726" data-name="Group 36726">
        <path id="Path_38410" data-name="Path 38410" d="M35.089,250.151a2.96,2.96,0,0,0-.319-.582,3.947,3.947,0,0,0-2.732-1.719.585.585,0,0,0-.4.1,3.385,3.385,0,0,1-3.994,0,.52.52,0,0,0-.4-.1,3.918,3.918,0,0,0-2.732,1.719,3.413,3.413,0,0,0-.319.582.3.3,0,0,0,.014.263,5.532,5.532,0,0,0,.374.555,5.271,5.271,0,0,0,.638.721,8.312,8.312,0,0,0,.638.555,6.323,6.323,0,0,0,7.543,0,6.1,6.1,0,0,0,.638-.555,6.4,6.4,0,0,0,.638-.721,4.861,4.861,0,0,0,.374-.555A.237.237,0,0,0,35.089,250.151Z" transform="translate(-24.165 -247.841)" fill="#222b45"/>
      </g>
    </g>
  </g>
</svg>
