<svg xmlns="http://www.w3.org/2000/svg" width="19.739" height="23.241" viewBox="0 0 19.739 23.241">
  <g id="bookmark-white" transform="translate(-33.011 0.25)">
    <path id="Path_49028" data-name="Path 49028" d="M52.207.752a1.7,1.7,0,0,0-.789-.616A1.664,1.664,0,0,0,50.757,0H35a1.663,1.663,0,0,0-.661.135,1.693,1.693,0,0,0-.789.616,1.6,1.6,0,0,0-.293.932V21.058a1.6,1.6,0,0,0,.293.932,1.693,1.693,0,0,0,.789.616,1.662,1.662,0,0,0,.661.135,1.793,1.793,0,0,0,1.248-.5l6.629-6.373,6.629,6.374a1.789,1.789,0,0,0,1.247.48,1.749,1.749,0,0,0,1.451-.737,1.594,1.594,0,0,0,.293-.932V1.684A1.6,1.6,0,0,0,52.207.752Zm-1.631,19.84-6.358-6.1-1.338-1.277-1.338,1.277-6.358,6.1V1.924H50.576V20.592Z" fill="#222b45" stroke="#222b45" stroke-width="0.5"/>
  </g>
</svg>
