<svg xmlns="http://www.w3.org/2000/svg" width="18.931" height="17.372" viewBox="0 0 18.931 17.372">
  <g id="pharmacy" transform="translate(0 -21.085)">
    <g id="Group_36981" data-name="Group 36981" transform="translate(0 21.085)">
      <g id="Group_36980" data-name="Group 36980" transform="translate(0 0)">
        <path id="Path_49053" data-name="Path 49053" d="M18.615,27.572l-8.676-6.31a.72.72,0,0,0-.947,0L.316,27.572a.8.8,0,0,0,.473,1.42H2.367v8.676a.745.745,0,0,0,.789.789h12.62a.745.745,0,0,0,.789-.789V28.992h1.578A.8.8,0,0,0,18.615,27.572ZM9.465,36.88A4.733,4.733,0,1,1,14.2,32.147,4.746,4.746,0,0,1,9.465,36.88Z" transform="translate(0 -21.085)" fill="#125e51"/>
      </g>
    </g>
    <g id="Group_36983" data-name="Group 36983" transform="translate(5.916 28.598)">
      <g id="Group_36982" data-name="Group 36982">
        <path id="Path_49054" data-name="Path 49054" d="M164.751,226.651v-2.366h-2.366v2.366h-2.366v2.366h2.366v2.366h2.366v-2.366h2.366v-2.366Z" transform="translate(-160.018 -224.285)" fill="#125e51"/>
      </g>
    </g>
  </g>
</svg>
