<svg xmlns="http://www.w3.org/2000/svg" width="43.08" height="42.996" viewBox="0 0 43.08 42.996">
  <g id="idea" transform="translate(0 -0.498)">
    <path id="Path_38386" data-name="Path 38386" d="M109.1,62.874a13.5,13.5,0,0,0-7.152,24.94v6.5a1.262,1.262,0,0,0,1.262,1.262h.841v2.1A2.948,2.948,0,0,0,107,100.622H111.2a2.948,2.948,0,0,0,2.945-2.945v-2.1h.841a1.262,1.262,0,0,0,1.262-1.262v-6.5a13.5,13.5,0,0,0-7.152-24.94Zm-4.628,30.175V88h9.256v5.048Zm7.152,4.628a.421.421,0,0,1-.421.421H107a.421.421,0,0,1-.421-.421v-2.1h5.048Zm3.567-12.183c-.21-.034.554-.01-11.982-.018a1.261,1.261,0,0,0-.2.018,10.971,10.971,0,1,1,12.183,0Z" transform="translate(-87.561 -57.127)" fill="#ad3057"/>
    <path id="Path_38387" data-name="Path 38387" d="M179.883,176.7h-6.311v-1.935a1.262,1.262,0,0,0-1.262-1.262h-5.048A1.262,1.262,0,0,0,166,174.764v6.311a1.262,1.262,0,0,0,1.262,1.262h5.048a1.262,1.262,0,0,0,1.262-1.262v-1.851h1.262v1.262a1.262,1.262,0,0,0,2.524,0v-1.262h1.262v1.262a1.262,1.262,0,1,0,2.524,0v-2.524A1.262,1.262,0,0,0,179.883,176.7Zm-8.835,3.113h-2.524v-3.786h2.524Z" transform="translate(-152.033 -158.447)" fill="#ad3057"/>
    <path id="Path_38388" data-name="Path 38388" d="M4.039,209.214H1.262a1.262,1.262,0,0,0,0,2.524H4.039a1.262,1.262,0,0,0,0-2.524Z" transform="translate(0 -191.154)" fill="#ad3057"/>
    <path id="Path_38389" data-name="Path 38389" d="M36.583,90.269l-2.4-1.388a1.262,1.262,0,1,0-1.262,2.186l2.4,1.388a1.262,1.262,0,1,0,1.262-2.186Z" transform="translate(-29.569 -80.79)" fill="#ad3057"/>
    <path id="Path_38390" data-name="Path 38390" d="M122.055,4.8a1.262,1.262,0,0,0,2.186-1.262l-1.388-2.4a1.262,1.262,0,0,0-2.186,1.262Z" transform="translate(-110.358 0)" fill="#ad3057"/>
    <path id="Path_38391" data-name="Path 38391" d="M453.039,209.214h-2.777a1.262,1.262,0,1,0,0,2.524h2.777a1.262,1.262,0,0,0,0-2.524Z" transform="translate(-411.221 -191.154)" fill="#ad3057"/>
    <path id="Path_38392" data-name="Path 38392" d="M425.89,89.343a1.262,1.262,0,0,0-1.724-.462l-2.4,1.388a1.262,1.262,0,0,0,1.262,2.186l2.4-1.388A1.262,1.262,0,0,0,425.89,89.343Z" transform="translate(-385.696 -80.791)" fill="#ad3057"/>
    <path id="Path_38393" data-name="Path 38393" d="M345.629,5.258a1.262,1.262,0,0,0,1.724-.462l1.388-2.4a1.262,1.262,0,0,0-2.186-1.262l-1.388,2.4A1.262,1.262,0,0,0,345.629,5.258Z" transform="translate(-315.969 0)" fill="#ad3057"/>
  </g>
</svg>
