<svg xmlns="http://www.w3.org/2000/svg" width="8.489" height="19.212" viewBox="0 0 8.489 19.212">
  <g id="info" transform="translate(-31.139)">
    <path id="Path_49062" data-name="Path 49062" d="M39.374,17.139l-.268,1.1q-1.208.477-1.928.726a5.085,5.085,0,0,1-1.672.25,3.337,3.337,0,0,1-2.274-.713,2.308,2.308,0,0,1-.811-1.812,6.41,6.41,0,0,1,.06-.872q.062-.446.2-1.007l1.006-3.562q.134-.512.227-.97A4.215,4.215,0,0,0,34,9.442a1.291,1.291,0,0,0-.282-.952,1.591,1.591,0,0,0-1.077-.269,2.821,2.821,0,0,0-.8.122c-.274.081-.508.159-.7.232l.269-1.1q.989-.4,1.892-.689A5.66,5.66,0,0,1,35.012,6.5a3.255,3.255,0,0,1,2.24.7,2.329,2.329,0,0,1,.787,1.824c0,.155-.017.428-.054.817a5.467,5.467,0,0,1-.2,1.074l-1,3.548a9.425,9.425,0,0,0-.22.977,5.031,5.031,0,0,0-.1.829,1.2,1.2,0,0,0,.316.964,1.782,1.782,0,0,0,1.1.256,3.166,3.166,0,0,0,.829-.128A4.635,4.635,0,0,0,39.374,17.139Zm.254-14.9a2.076,2.076,0,0,1-.7,1.58,2.387,2.387,0,0,1-1.688.654,2.413,2.413,0,0,1-1.7-.654,2.072,2.072,0,0,1-.708-1.58A2.092,2.092,0,0,1,35.542.658a2.5,2.5,0,0,1,3.385,0A2.1,2.1,0,0,1,39.628,2.244Z" fill="#125e51"/>
  </g>
</svg>
