<svg xmlns="http://www.w3.org/2000/svg" width="16.475" height="17.527" viewBox="0 0 16.475 17.527">
  <g id="medical" transform="translate(-15.65 0.35)">
    <path id="Path_49305" data-name="Path 49305" d="M30.723,1.052H29.409V.789a.789.789,0,1,0-1.577,0v.263H19.944V.789a.789.789,0,1,0-1.577,0v.263H17.052A1.053,1.053,0,0,0,16,2.1V13.146A1.053,1.053,0,0,0,17.052,14.2h3.681a.263.263,0,0,0,0-.526H17.052a.527.527,0,0,1-.526-.526V4.207H31.249v8.939a.527.527,0,0,1-.526.526H27.831a.263.263,0,0,0,0,.526h2.892a1.053,1.053,0,0,0,1.052-1.052V2.1A1.053,1.053,0,0,0,30.723,1.052ZM28.357.789a.263.263,0,0,1,.526,0V2.1a.263.263,0,0,1-.526,0Zm-9.465,0a.263.263,0,1,1,.526,0V2.1a.263.263,0,1,1-.526,0Z" fill="#1f8a17" stroke="#1f8a17" stroke-width="0.7"/>
    <path id="Path_49306" data-name="Path 49306" d="M128.939,212.207a1.577,1.577,0,1,0-1.84,1.555v1.468a2.235,2.235,0,0,1-4.47,0v-1.461a2.369,2.369,0,0,0,2.1-2.351v-2.366A1.053,1.053,0,0,0,123.681,208a.263.263,0,1,0,0,.526.526.526,0,0,1,.526.526v2.366a1.84,1.84,0,0,1-3.681,0v-2.366a.526.526,0,0,1,.526-.526.263.263,0,0,0,0-.526A1.053,1.053,0,0,0,120,209.052v2.366a2.369,2.369,0,0,0,2.1,2.351v1.461a2.761,2.761,0,1,0,5.521,0v-1.468A1.58,1.58,0,0,0,128.939,212.207Zm-1.315.455a.525.525,0,1,1,.263-.455A.526.526,0,0,1,127.625,212.661Z" transform="translate(-100.582 -201.164)" fill="#1f8a17" stroke="#1f8a17" stroke-width="0.7"/>
  </g>
</svg>
