<svg xmlns="http://www.w3.org/2000/svg" width="15.735" height="15.735" viewBox="0 0 15.735 15.735">
  <g id="smartphone" transform="translate(-0.001)">
    <g id="Group_36978" data-name="Group 36978" transform="translate(0.001)">
      <g id="Group_36977" data-name="Group 36977">
        <circle id="Ellipse_295" data-name="Ellipse 295" cx="0.615" cy="0.615" r="0.615" transform="translate(7.253 11.244)" fill="#205284"/>
        <path id="Path_49050" data-name="Path 49050" d="M114.44,68.248h-3.429a.341.341,0,0,0-.349.332v6.482a.341.341,0,0,0,.349.332h3.429a.341.341,0,0,0,.349-.332V68.58A.341.341,0,0,0,114.44,68.248Z" transform="translate(-104.858 -64.668)" fill="#205284"/>
        <path id="Path_49051" data-name="Path 49051" d="M7.868,0a7.867,7.867,0,1,0,7.868,7.867A7.867,7.867,0,0,0,7.868,0Zm3.061,11.75a1.088,1.088,0,0,1-1.088,1.088H5.9A1.088,1.088,0,0,1,4.808,11.75v-7.8A1.088,1.088,0,0,1,5.9,2.862H9.841a1.088,1.088,0,0,1,1.088,1.088Z" transform="translate(-0.001)" fill="#205284"/>
      </g>
    </g>
  </g>
</svg>
