<svg xmlns="http://www.w3.org/2000/svg" width="36.387" height="42.245" viewBox="0 0 36.387 42.245">
  <g id="stethoscope" transform="translate(-35.501)">
    <g id="Group_36715" data-name="Group 36715" transform="translate(35.501 1.645)">
      <g id="Group_36714" data-name="Group 36714">
        <path id="Path_38401" data-name="Path 38401" d="M58.628,19.932H53.694v3.084h3.392v5.807a9.251,9.251,0,1,1-18.5,0V23.016h3.289V19.932H37.043A1.542,1.542,0,0,0,35.5,21.474v7.349a12.334,12.334,0,1,0,24.669,0V21.474A1.542,1.542,0,0,0,58.628,19.932Z" transform="translate(-35.501 -19.932)" fill="#d4af38"/>
      </g>
    </g>
    <g id="Group_36717" data-name="Group 36717" transform="translate(46.139 21.38)">
      <g id="Group_36716" data-name="Group 36716">
        <path id="Path_38402" data-name="Path 38402" d="M182.936,261.889v7.3a7.709,7.709,0,0,1-15.418,0V259.114h-3.084v10.073a10.793,10.793,0,1,0,21.585,0v-7.3Z" transform="translate(-164.434 -259.114)" fill="#d4af38"/>
      </g>
    </g>
    <g id="Group_36719" data-name="Group 36719" transform="translate(60.478 14.185)">
      <g id="Group_36718" data-name="Group 36718">
        <path id="Path_38403" data-name="Path 38403" d="M343.921,171.912a5.7,5.7,0,1,0,5.7,5.7A5.711,5.711,0,0,0,343.921,171.912Zm0,8.326a2.621,2.621,0,1,1,2.621-2.621A2.624,2.624,0,0,1,343.921,180.238Z" transform="translate(-338.216 -171.912)" fill="#d4af38"/>
      </g>
    </g>
    <g id="Group_36721" data-name="Group 36721" transform="translate(40.281)">
      <g id="Group_36720" data-name="Group 36720">
        <path id="Path_38404" data-name="Path 38404" d="M94.97,0a1.542,1.542,0,0,0-1.542,1.542V4.831a1.542,1.542,0,0,0,3.084,0V1.542A1.542,1.542,0,0,0,94.97,0Z" transform="translate(-93.428)" fill="#d4af38"/>
      </g>
    </g>
    <g id="Group_36723" data-name="Group 36723" transform="translate(52.204)">
      <g id="Group_36722" data-name="Group 36722">
        <path id="Path_38405" data-name="Path 38405" d="M239.476,0a1.542,1.542,0,0,0-1.542,1.542V4.831a1.542,1.542,0,0,0,3.084,0V1.542A1.542,1.542,0,0,0,239.476,0Z" transform="translate(-237.934)" fill="#d4af38"/>
      </g>
    </g>
  </g>
</svg>
