<svg xmlns="http://www.w3.org/2000/svg" width="19.122" height="12.877" viewBox="0 0 19.122 12.877">
  <path id="id-card" d="M8.668,46.322a.839.839,0,0,1-.839.839H3.578a.839.839,0,0,1-.839-.839,1.773,1.773,0,0,1,1.771-1.771h.176a1.726,1.726,0,1,1,2.033,0H6.9a1.773,1.773,0,0,1,1.77,1.7Q8.668,46.285,8.668,46.322Zm10.454-8.461V49.48a.629.629,0,0,1-.629.629H.629A.629.629,0,0,1,0,49.48V37.861a.629.629,0,0,1,.629-.629H18.493A.629.629,0,0,1,19.122,37.861Zm-9.507,2.15a.629.629,0,0,0-.629-.629H2.42a.629.629,0,0,0-.629.629V47.33a.629.629,0,0,0,.629.629H8.986a.629.629,0,0,0,.629-.629V40.011Zm7.557,6.343a.629.629,0,0,0-.629-.629H12.049a.629.629,0,1,0,0,1.258h4.493A.629.629,0,0,0,17.171,46.354Zm0-2.684a.629.629,0,0,0-.629-.629H12.049a.629.629,0,1,0,0,1.258h4.493A.629.629,0,0,0,17.171,43.67Zm0-2.684a.629.629,0,0,0-.629-.629H12.049a.629.629,0,0,0,0,1.258h4.493A.629.629,0,0,0,17.171,40.987Z" transform="translate(0 -37.232)" fill="#bf4646"/>
</svg>
