<svg xmlns="http://www.w3.org/2000/svg" width="18.673" height="18.671" viewBox="0 0 18.673 18.671">
  <g id="speaker" transform="translate(0.001)">
    <path id="Path_49307" data-name="Path 49307" d="M13.974,22.224H7.361a.583.583,0,0,1-.576-.495l-.778-5.057A.583.583,0,0,1,6.584,16h8.169a.584.584,0,0,1,.576.673l-.778,5.057a.583.583,0,0,1-.576.494Z" transform="translate(-1.333 -3.553)" fill="#d4af38"/>
    <circle id="Ellipse_306" data-name="Ellipse 306" cx="3.112" cy="3.112" r="3.112" transform="translate(6.223)" fill="#d4af38"/>
    <path id="Path_49308" data-name="Path 49308" d="M18.061,11.446a5.654,5.654,0,0,0-2.5-4.287,1.179,1.179,0,1,0-.584,1.014,4.484,4.484,0,0,1,1.921,3.273H15.512a3.7,3.7,0,0,0-3.649-3.112H6.807a3.7,3.7,0,0,0-3.649,3.112H.583a.593.593,0,0,0-.552.786L1.587,16.51a.591.591,0,0,0,.552.381H3.477l-.342-2.2a2.149,2.149,0,0,1,.49-1.719,2.18,2.18,0,0,1,1.626-.747h8.169a2.139,2.139,0,0,1,2.116,2.466l-.342,2.2h1.338a.591.591,0,0,0,.552-.381l1.556-4.279a.591.591,0,0,0-.578-.786Z" transform="translate(0 -1.332)" fill="#d4af38"/>
  </g>
</svg>
