<svg xmlns="http://www.w3.org/2000/svg" width="13.48" height="13.48" viewBox="0 0 13.48 13.48">
  <g id="subscribe-rss-button" transform="translate(0 -0.002)">
    <g id="Group_36974" data-name="Group 36974" transform="translate(0 0.002)">
      <path id="Path_49047" data-name="Path 49047" d="M1.744,72.389a1.744,1.744,0,1,0,1.744,1.744A1.746,1.746,0,0,0,1.744,72.389Z" transform="translate(0 -62.398)" fill="#125e51"/>
      <path id="Path_49048" data-name="Path 49048" d="M.321,36.383a.276.276,0,0,0-.285.276V38.9a.276.276,0,0,0,.263.276,5.638,5.638,0,0,1,5.4,5.4.276.276,0,0,0,.276.263H8.214a.276.276,0,0,0,.276-.285,8.424,8.424,0,0,0-2.476-5.693A8.425,8.425,0,0,0,.321,36.383Z" transform="translate(-0.031 -31.362)" fill="#125e51"/>
      <path id="Path_49049" data-name="Path 49049" d="M9.561,3.952A13.409,13.409,0,0,0,.317,0a.266.266,0,0,0-.2.079.276.276,0,0,0-.083.2V2.515A.276.276,0,0,0,.3,2.791,10.813,10.813,0,0,1,10.721,13.208a.276.276,0,0,0,.276.269h2.237a.276.276,0,0,0,.276-.282A13.409,13.409,0,0,0,9.561,3.952Z" transform="translate(-0.03 -0.002)" fill="#125e51"/>
    </g>
  </g>
</svg>
